<svg width="26" height="26" viewBox="0 0 26 26" fill="none" xmlns="http://www.w3.org/2000/svg">
<path fill-rule="evenodd" clip-rule="evenodd" d="M19.6715 7.77379V7.77379C20.0873 8.18966 20.321 8.7537 20.321 9.34182C20.321 9.92995 20.0873 10.494 19.6715 10.9099L17.5466 13.0347C17.2215 13.3597 16.7807 13.5424 16.3209 13.5424C15.8612 13.5424 15.4204 13.3597 15.0953 13.0347L12.9705 10.9098C12.5546 10.494 12.321 9.92991 12.321 9.34178C12.321 8.75366 12.5546 8.18962 12.9705 7.77375V7.77375C13.8364 6.90779 15.2405 6.90779 16.1065 7.77375L16.3209 7.98819L16.5353 7.77375C16.9512 7.35787 17.5153 7.12423 18.1034 7.12424C18.6915 7.12424 19.2556 7.3579 19.6715 7.77379V7.77379Z" stroke="#FFB400" stroke-width="1.5" stroke-linecap="round" stroke-linejoin="round"/>
<path fill-rule="evenodd" clip-rule="evenodd" d="M13.676 21H21C23.2091 21 25 19.2091 25 17V5C25 2.79086 23.2091 1 21 1H5C2.79086 1 1 2.79086 1 5V17C1 19.2091 2.79086 21 5 21H7.676V24.2572C7.676 24.5422 7.83937 24.802 8.09627 24.9255C8.35316 25.049 8.65809 25.0142 8.88065 24.8362L13.676 21Z" stroke="#FFB400" stroke-width="1.5" stroke-linecap="round" stroke-linejoin="round"/>
</svg>
