<svg width="32" height="32" viewBox="0 0 32 32" fill="none" xmlns="http://www.w3.org/2000/svg">
<rect x="3.99933" y="3.99609" width="23.9937" height="23.9937" rx="4.16667" stroke="#FF4C51" stroke-width="1.25" stroke-linecap="round" stroke-linejoin="round"/>
<path fill-rule="evenodd" clip-rule="evenodd" d="M17.6541 12.1476C17.0324 12.3599 16.5764 12.4875 15.9961 12.4875C15.4155 12.4875 14.9597 12.3599 14.3379 12.1476C13.7161 11.935 13.7573 11.8503 11.5604 12.6148C9.36343 13.3794 6.66895 13.7619 6.66895 13.7619C10.8143 21.7894 15.9961 21.3219 15.9961 21.3219C15.9961 21.3219 21.1777 21.7894 25.323 13.7619C25.323 13.7619 22.6285 13.3792 20.4318 12.6148C18.2347 11.8503 18.276 11.935 17.6541 12.1476Z" fill="#FF4C51"/>
<path fill-rule="evenodd" clip-rule="evenodd" d="M15.996 17.3289C15.996 17.3289 11.1992 17.0984 8.00122 14.7938C8.00122 14.7938 9.72775 14.8706 11.7107 14.7322C13.6936 14.5939 15.3563 14.7015 15.996 14.7477C16.6353 14.7015 18.2983 14.5939 20.2811 14.7322C22.2639 14.8706 23.9904 14.7938 23.9904 14.7938C20.7925 17.0984 15.996 17.3289 15.996 17.3289Z" fill="white"/>
</svg>
