<svg width="36" height="36" viewBox="0 0 36 36" fill="none" xmlns="http://www.w3.org/2000/svg">
<rect width="36" height="36" rx="10" fill="url(#paint0_linear_207_4549)" fill-opacity="0.16"/>
<path d="M12.1423 24.4117H8.47831V13.5994H12.2162C13.2897 13.5994 14.2118 13.8159 14.9826 14.2488C15.7569 14.6782 16.3517 15.2959 16.7671 16.1019C17.1824 16.9079 17.39 17.8723 17.39 18.995C17.39 20.1213 17.1806 21.0892 16.7618 21.8987C16.3465 22.7082 15.7464 23.3295 14.9615 23.7624C14.1801 24.1953 13.2404 24.4117 12.1423 24.4117ZM10.437 22.717H12.0472C12.8004 22.717 13.4287 22.5798 13.932 22.3052C14.4353 22.0272 14.8137 21.6136 15.0671 21.0646C15.3205 20.512 15.4472 19.8221 15.4472 18.995C15.4472 18.1679 15.3205 17.4816 15.0671 16.936C14.8137 16.387 14.4388 15.9769 13.9425 15.7059C13.4498 15.4314 12.8374 15.2941 12.1053 15.2941H10.437V22.717ZM18.551 24.4117V13.5994H20.5097V18.5674H20.6417L24.86 13.5994H27.2516L23.0702 18.4512L27.2885 24.4117H24.9339L21.7081 19.7764L20.5097 21.1913V24.4117H18.551Z" fill="url(#paint1_linear_207_4549)"/>
<rect x="0.5" y="0.5" width="35" height="35" rx="9.5" stroke="black" stroke-opacity="0.07"/>
<defs>
<linearGradient id="paint0_linear_207_4549" x1="0.745313" y1="36.8216" x2="43.5202" y2="22.5678" gradientUnits="userSpaceOnUse">
<stop stop-color="#FD5C83"/>
<stop offset="1" stop-color="#F6A25F"/>
</linearGradient>
<linearGradient id="paint1_linear_207_4549" x1="7.84663" y1="30.9366" x2="33.2205" y2="23.2166" gradientUnits="userSpaceOnUse">
<stop stop-color="#FD5C83"/>
<stop offset="1" stop-color="#F6A25F"/>
</linearGradient>
</defs>
</svg>
